<svg width="30" height="24" viewBox="0 0 30 24" fill="none" xmlns="http://www.w3.org/2000/svg">
<g id="fa6-brands:aws" clip-path="url(#clip0_51_63)">
<path id="Vector" d="M8.45672 9.5161C8.42297 10.5778 8.9536 11.048 8.96672 11.3466C8.96049 11.4073 8.93979 11.4657 8.90635 11.5169C8.87291 11.568 8.82771 11.6104 8.77454 11.6405L8.17453 12.0605C8.09689 12.1149 8.00535 12.1461 7.91063 12.1505C7.89047 12.1495 7.52672 12.2363 6.95063 10.95C6.59917 11.3888 6.15197 11.7413 5.64328 11.9805C5.13458 12.2198 4.57787 12.3395 4.01578 12.3305C3.25266 12.3722 1.18453 11.8974 1.29094 9.69563C1.21641 7.90126 2.8875 6.78657 4.61578 6.88079C4.9486 6.88173 5.62829 6.89813 6.81844 7.1747V6.44251C6.94454 5.2022 6.12938 4.23985 4.71797 4.38423C4.60547 4.3847 3.8086 4.36079 2.56922 4.85813C2.22422 5.01657 2.18016 4.99032 2.06532 4.99032C1.71797 4.99032 1.86094 3.98345 1.9275 3.85595C2.17172 3.55595 3.60844 2.99579 5.01844 3.00376C5.96121 2.9204 6.89892 3.21136 7.62891 3.81376C7.92561 4.14569 8.15197 4.53431 8.29433 4.95615C8.43669 5.37798 8.49209 5.82429 8.45719 6.26813L8.45672 9.5161ZM4.40578 11.0344C5.92594 11.0124 6.56953 10.0983 6.71625 9.6061C6.83157 9.13501 6.81235 8.83688 6.81235 8.32173C6.35907 8.21298 5.70657 8.09438 4.95797 8.09345C4.24782 8.04001 2.95078 8.35735 3.00141 9.60563C2.94328 10.3927 3.52266 11.0775 4.40578 11.0344ZM12.4177 12.1149C12.0492 12.1486 11.8777 11.887 11.8233 11.6288L9.48891 3.91079C9.44344 3.78048 9.41344 3.64595 9.39891 3.5086C9.3903 3.45198 9.40452 3.39425 9.43845 3.34811C9.47237 3.30196 9.52323 3.27117 9.57985 3.26251C9.5911 3.26063 9.48 3.26251 10.6228 3.26251C11.0344 3.22126 11.1684 3.54516 11.2111 3.7486L12.8855 10.35L14.4398 3.7486C14.4647 3.59766 14.5777 3.2297 15.0398 3.2686H15.8442C15.9459 3.26016 16.365 3.24516 16.4386 3.7547L18.0052 10.4405L19.7334 3.7547C19.7559 3.65251 19.8609 3.22173 20.3278 3.2686H21.2522C21.292 3.26251 21.5405 3.23063 21.4983 3.67079C21.4781 3.75751 21.6581 3.1711 19.0256 11.6349C18.9717 11.8931 18.7997 12.1547 18.4313 12.1209H17.5552C17.0423 12.1749 16.9688 11.6681 16.9608 11.617L15.4064 5.18907L13.8698 11.6105C13.8623 11.6616 13.7888 12.1683 13.2755 12.1144H12.4177V12.1149ZM25.237 12.3788C24.9614 12.3792 23.647 12.3647 22.5483 11.8027C22.4388 11.7563 22.3456 11.6785 22.2804 11.5791C22.2152 11.4797 22.1811 11.3632 22.1822 11.2444V10.7405C22.1822 10.3444 22.4728 10.417 22.5961 10.4644C23.0667 10.6547 23.3686 10.7991 23.9466 10.9144C25.6645 11.2674 26.4202 10.8066 26.6053 10.7044C27.2217 10.3383 27.2705 9.50063 26.8514 9.0661C26.3602 8.65407 26.1258 8.6386 24.3609 8.08173C24.1434 8.02126 22.3125 7.44376 22.3083 5.62735C22.2797 4.3036 23.4825 2.99391 25.567 3.0047C26.1609 3.00423 27.7434 3.19829 28.1719 3.73688C28.2352 3.83485 28.2666 3.95016 28.2619 4.06688V4.54079C28.2619 4.74891 28.1859 4.85298 28.0336 4.85298C27.6722 4.81266 27.0309 4.32938 25.7292 4.34907C25.4063 4.3322 23.8594 4.39173 23.9288 5.51954C23.9086 6.40829 25.1761 6.74157 25.3209 6.78001C27.03 7.29423 27.6014 7.37954 28.2797 8.16657C29.0831 9.20954 28.65 10.4306 28.4836 10.7653C27.5892 12.5227 25.2764 12.3797 25.237 12.3788ZM27.1214 17.2941C23.8388 19.7184 19.0734 21.0089 15.0047 21.0089C9.51472 21.0451 4.20976 19.0264 0.132659 15.3497C-0.173434 15.0736 0.0965658 14.6953 0.468753 14.9058C4.99147 17.4929 10.1121 18.8522 15.3225 18.8489C19.2135 18.8281 23.062 18.0387 26.647 16.5263C27.1992 16.2919 27.6675 16.8919 27.1214 17.2941ZM28.4897 15.7336C28.0697 15.1936 25.7109 15.4814 24.6548 15.6075C24.3366 15.6436 24.2827 15.3675 24.5709 15.1636C26.4492 13.8431 29.5341 14.2214 29.8884 14.6653C30.2423 15.1092 29.7923 18.2002 28.0341 19.6767C27.7641 19.905 27.5058 19.7845 27.6258 19.4845C28.0214 18.4884 28.9097 16.2741 28.4897 15.7336Z" fill="white"/>
</g>
<defs>
<clipPath id="clip0_51_63">
<rect width="30" height="24" fill="white"/>
</clipPath>
</defs>
</svg>
