<svg width="24" height="24" viewBox="0 0 24 24" fill="none" xmlns="http://www.w3.org/2000/svg">
<path d="M8 6V4.5C8 3.12 9.12 2 10.5 2H13.5C14.88 2 16 3.12 16 4.5V6H18C19.0609 6 20.0783 6.42143 20.8284 7.17157C21.5786 7.92172 22 8.93913 22 10V18C22 19.0609 21.5786 20.0783 20.8284 20.8284C20.0783 21.5786 19.0609 22 18 22H6C4.93913 22 3.92172 21.5786 3.17157 20.8284C2.42143 20.0783 2 19.0609 2 18V10C2 8.93913 2.42143 7.92172 3.17157 7.17157C3.92172 6.42143 4.93913 6 6 6H8ZM10 4.5V6H14V4.5C14 4.36739 13.9473 4.24021 13.8536 4.14645C13.7598 4.05268 13.6326 4 13.5 4H10.5C10.3674 4 10.2402 4.05268 10.1464 4.14645C10.0527 4.24021 10 4.36739 10 4.5ZM6 8C5.46957 8 4.96086 8.21071 4.58579 8.58579C4.21071 8.96086 4 9.46957 4 10V11C4 11.7956 4.31607 12.5587 4.87868 13.1213C5.44129 13.6839 6.20435 14 7 14H10V13C10 12.7348 10.1054 12.4804 10.2929 12.2929C10.4804 12.1054 10.7348 12 11 12H13C13.2652 12 13.5196 12.1054 13.7071 12.2929C13.8946 12.4804 14 12.7348 14 13V14H17C17.7956 14 18.5587 13.6839 19.1213 13.1213C19.6839 12.5587 20 11.7956 20 11V10C20 9.46957 19.7893 8.96086 19.4142 8.58579C19.0391 8.21071 18.5304 8 18 8H6ZM17 16H14V17C14 17.2652 13.8946 17.5196 13.7071 17.7071C13.5196 17.8946 13.2652 18 13 18H11C10.7348 18 10.4804 17.8946 10.2929 17.7071C10.1054 17.5196 10 17.2652 10 17V16H7C5.91815 16 4.86548 15.6491 4 15V18C4 18.5304 4.21071 19.0391 4.58579 19.4142C4.96086 19.7893 5.46957 20 6 20H18C18.5304 20 19.0391 19.7893 19.4142 19.4142C19.7893 19.0391 20 18.5304 20 18V15C19.164 15.628 18.126 16 17 16Z" fill="url(#paint0_linear_1_23)"/>
<defs>
<linearGradient id="paint0_linear_1_23" x1="2" y1="12" x2="22" y2="12" gradientUnits="userSpaceOnUse">
<stop stop-color="#FFD86E"/>
<stop offset="1" stop-color="#FFBC5E"/>
</linearGradient>
</defs>
</svg>
