<svg width="24" height="11" viewBox="0 0 24 11" fill="none" xmlns="http://www.w3.org/2000/svg">
<g id="logos:ibm" clip-path="url(#clip0_51_91)">
<path id="Vector" d="M4.66773 9.5787V10.2453H0.00170898V9.5787H4.66773ZM11.9596 9.5787C11.4916 10.009 10.8785 10.247 10.2427 10.2453L5.33429 10.2387V9.5787H11.9596ZM18.8974 9.5787L18.6647 10.2453L18.434 9.5787H18.8974ZM16.666 9.5787V10.2453H13.3332V9.5787H16.666ZM23.9983 9.5787V10.2453H20.6654V9.5787H23.9983ZM12.7146 8.30622C12.6574 8.54003 12.5671 8.76448 12.4464 8.97278H5.33429V8.30622H12.7146ZM19.3441 8.30622L19.1102 8.97283H18.2213L17.9873 8.30622H19.3441ZM16.666 8.30622V8.97278H13.3332V8.30622H16.666ZM23.9983 8.30622V8.97278H20.6654V8.30622H23.9983ZM4.66773 8.30622V8.97278H0.00170898V8.30622H4.66773ZM3.33452 7.0336V7.70021H1.33483V7.0336H3.33452ZM8.6671 7.0336V7.70021H6.66737V7.0336H8.6671ZM12.6986 7.0336C12.7576 7.25089 12.7876 7.47504 12.7877 7.70021H10.5457V7.0336H12.6986ZM19.7909 7.0336L19.5569 7.70021H17.7745L17.5404 7.0336H19.7909ZM16.666 7.0336V7.70021H14.6662V7.0336H16.666ZM22.6651 7.0336V7.70021H20.6654V7.0336H22.6651ZM3.33452 5.76108V6.42764H1.33483V5.76108H3.33452ZM16.666 5.76108V6.42764H14.6662V5.76108H16.666ZM22.6651 5.76108V6.42764H20.6654V5.76108H22.6651ZM11.8896 5.76108C12.1116 5.94991 12.2997 6.17533 12.4456 6.4276H6.66742V5.76104L11.8896 5.76108ZM20.2376 5.76108L20.0037 6.42764H17.3277L17.0937 5.76104L20.2376 5.76108ZM18.4783 4.48856L18.6657 5.02736L18.853 4.48856H22.6651V5.15512H20.6655V4.54269L20.4504 5.15517H16.8811L16.666 4.5426V5.15517H14.6663V4.48856H18.4783ZM6.66737 4.48856H12.4457C12.2998 4.74084 12.1117 4.96629 11.8897 5.15512H6.66742L6.66737 4.48856ZM3.33452 4.48856V5.15512H1.33483V4.48851L3.33452 4.48856ZM3.33452 3.21599V3.88255H1.33483V3.21599H3.33452ZM8.6671 3.21599V3.88255H6.66737V3.21599H8.6671ZM12.7878 3.21599C12.7877 3.44115 12.7577 3.66529 12.6986 3.88255H10.5457V3.21599H12.7878ZM18.0357 3.21599L18.2676 3.88255H14.6663V3.21599H18.0357ZM22.6651 3.21599V3.88255H19.0638L19.2956 3.21599H22.6651ZM4.66764 1.94342V2.61003H0.00170898V1.94338L4.66764 1.94342ZM12.4464 1.94342C12.567 2.15173 12.6573 2.37617 12.7146 2.60998H5.3342V1.94342H12.4464ZM23.9982 1.94342V2.60998H19.5063L19.7381 1.94342H23.9982ZM17.5932 1.94342L17.825 2.60998H13.3331V1.94342H17.5932ZM4.66778 0.670948V1.33746H0.00170898V0.670901L4.66778 0.670948ZM10.2427 0.670901C10.8783 0.670031 11.4911 0.907926 11.9596 1.33746H5.33429V0.670901H10.2427ZM23.9983 0.670901V1.33751H19.9489L20.1807 0.670948L23.9983 0.670901ZM17.1508 0.670901L17.3826 1.33751H13.3332V0.670948L17.1508 0.670901Z" fill="white"/>
</g>
<defs>
<clipPath id="clip0_51_91">
<rect width="24" height="10" fill="white" transform="translate(0 0.5)"/>
</clipPath>
</defs>
</svg>
